<mxfile host="app.diagrams.net" modified="2023-08-15T12:56:49.741Z" agent="Mozilla/5.0 (Macintosh; Intel Mac OS X 10_15_7) AppleWebKit/537.36 (KHTML, like Gecko) Chrome/115.0.0.0 Safari/537.36" etag="kYBsCFeDp5Soq4k2hDw1" version="21.6.8" type="device">
  <diagram name="Page-1" id="LADysOd7KR2-gFgasqNt">
    <mxGraphModel dx="844" dy="559" grid="1" gridSize="10" guides="1" tooltips="1" connect="1" arrows="1" fold="1" page="1" pageScale="1" pageWidth="827" pageHeight="1169" math="0" shadow="0">
      <root>
        <mxCell id="0" />
        <mxCell id="1" parent="0" />
        <mxCell id="llbpyGfWoUdFZpJ6rj5c-19" style="edgeStyle=orthogonalEdgeStyle;rounded=0;orthogonalLoop=1;jettySize=auto;html=1;" edge="1" parent="1" source="llbpyGfWoUdFZpJ6rj5c-1" target="llbpyGfWoUdFZpJ6rj5c-2">
          <mxGeometry relative="1" as="geometry" />
        </mxCell>
        <mxCell id="llbpyGfWoUdFZpJ6rj5c-1" value="Start" style="ellipse;whiteSpace=wrap;html=1;" vertex="1" parent="1">
          <mxGeometry x="372" y="70" width="88" height="40" as="geometry" />
        </mxCell>
        <mxCell id="llbpyGfWoUdFZpJ6rj5c-18" style="edgeStyle=orthogonalEdgeStyle;rounded=0;orthogonalLoop=1;jettySize=auto;html=1;" edge="1" parent="1" source="llbpyGfWoUdFZpJ6rj5c-2" target="llbpyGfWoUdFZpJ6rj5c-4">
          <mxGeometry relative="1" as="geometry" />
        </mxCell>
        <mxCell id="llbpyGfWoUdFZpJ6rj5c-2" value="Read&lt;br&gt;Basic Salary" style="shape=parallelogram;perimeter=parallelogramPerimeter;whiteSpace=wrap;html=1;fixedSize=1;" vertex="1" parent="1">
          <mxGeometry x="260" y="160" width="310" height="60" as="geometry" />
        </mxCell>
        <mxCell id="llbpyGfWoUdFZpJ6rj5c-17" style="edgeStyle=orthogonalEdgeStyle;rounded=0;orthogonalLoop=1;jettySize=auto;html=1;" edge="1" parent="1" source="llbpyGfWoUdFZpJ6rj5c-4" target="llbpyGfWoUdFZpJ6rj5c-7">
          <mxGeometry relative="1" as="geometry" />
        </mxCell>
        <mxCell id="llbpyGfWoUdFZpJ6rj5c-4" value="Calculate&lt;br&gt;Allowances" style="rounded=1;whiteSpace=wrap;html=1;" vertex="1" parent="1">
          <mxGeometry x="260" y="280" width="310" height="60" as="geometry" />
        </mxCell>
        <mxCell id="llbpyGfWoUdFZpJ6rj5c-16" style="edgeStyle=orthogonalEdgeStyle;rounded=0;orthogonalLoop=1;jettySize=auto;html=1;" edge="1" parent="1" source="llbpyGfWoUdFZpJ6rj5c-7" target="llbpyGfWoUdFZpJ6rj5c-9">
          <mxGeometry relative="1" as="geometry" />
        </mxCell>
        <mxCell id="llbpyGfWoUdFZpJ6rj5c-7" value="Read&lt;br&gt;Income Tax" style="shape=parallelogram;perimeter=parallelogramPerimeter;whiteSpace=wrap;html=1;fixedSize=1;" vertex="1" parent="1">
          <mxGeometry x="260" y="400" width="310" height="60" as="geometry" />
        </mxCell>
        <mxCell id="llbpyGfWoUdFZpJ6rj5c-12" style="edgeStyle=orthogonalEdgeStyle;rounded=0;orthogonalLoop=1;jettySize=auto;html=1;" edge="1" parent="1" source="llbpyGfWoUdFZpJ6rj5c-9" target="llbpyGfWoUdFZpJ6rj5c-11">
          <mxGeometry relative="1" as="geometry" />
        </mxCell>
        <mxCell id="llbpyGfWoUdFZpJ6rj5c-9" value="Calculate&lt;br&gt;Deductions" style="rounded=1;whiteSpace=wrap;html=1;" vertex="1" parent="1">
          <mxGeometry x="260" y="520" width="310" height="60" as="geometry" />
        </mxCell>
        <mxCell id="llbpyGfWoUdFZpJ6rj5c-14" style="edgeStyle=orthogonalEdgeStyle;rounded=0;orthogonalLoop=1;jettySize=auto;html=1;" edge="1" parent="1" source="llbpyGfWoUdFZpJ6rj5c-11" target="llbpyGfWoUdFZpJ6rj5c-13">
          <mxGeometry relative="1" as="geometry" />
        </mxCell>
        <mxCell id="llbpyGfWoUdFZpJ6rj5c-11" value="Calculate&lt;br&gt;Gross Salary" style="rounded=1;whiteSpace=wrap;html=1;" vertex="1" parent="1">
          <mxGeometry x="260" y="650" width="310" height="60" as="geometry" />
        </mxCell>
        <mxCell id="llbpyGfWoUdFZpJ6rj5c-20" style="edgeStyle=orthogonalEdgeStyle;rounded=0;orthogonalLoop=1;jettySize=auto;html=1;" edge="1" parent="1" source="llbpyGfWoUdFZpJ6rj5c-13" target="llbpyGfWoUdFZpJ6rj5c-15">
          <mxGeometry relative="1" as="geometry" />
        </mxCell>
        <mxCell id="llbpyGfWoUdFZpJ6rj5c-13" value="Calculate&lt;br&gt;Net Salary" style="rounded=1;whiteSpace=wrap;html=1;" vertex="1" parent="1">
          <mxGeometry x="260" y="780" width="310" height="60" as="geometry" />
        </mxCell>
        <mxCell id="llbpyGfWoUdFZpJ6rj5c-15" value="Print&lt;br&gt;Allowances, Deductions, Gross Salary, Net Salary" style="shape=parallelogram;perimeter=parallelogramPerimeter;whiteSpace=wrap;html=1;fixedSize=1;" vertex="1" parent="1">
          <mxGeometry x="260" y="910" width="312" height="60" as="geometry" />
        </mxCell>
      </root>
    </mxGraphModel>
  </diagram>
</mxfile>
